<?xml version="1.0" encoding="UTF-8" standalone="no"?>
<!DOCTYPE svg PUBLIC "-//W3C//DTD SVG 1.1//EN"
 "http://www.w3.org/Graphics/SVG/1.1/DTD/svg11.dtd">
<!-- Generated by graphviz version 2.38.0 (20140413.2041)
 -->
<!-- Title: G Pages: 1 -->
<svg width="592pt" height="904pt"
 viewBox="0.00 0.00 592.00 904.00" xmlns="http://www.w3.org/2000/svg" xmlns:xlink="http://www.w3.org/1999/xlink">
<g id="graph0" class="graph" transform="scale(1 1) rotate(0) translate(4 900)">
<title>G</title>
<polygon fill="white" stroke="none" points="-4,4 -4,-900 588,-900 588,4 -4,4"/>
<g id="clust1" class="cluster"><title>cluster_Global</title>
<path fill="none" stroke="gray" d="M20,-44C20,-44 564,-44 564,-44 570,-44 576,-50 576,-56 576,-56 576,-876 576,-876 576,-882 570,-888 564,-888 564,-888 20,-888 20,-888 14,-888 8,-882 8,-876 8,-876 8,-56 8,-56 8,-50 14,-44 20,-44"/>
<text text-anchor="middle" x="292" y="-875.2" font-family="Times,serif" font-size="11.00" fill="gray">Global</text>
</g>
<g id="clust2" class="cluster"><title>cluster_\acdhOeaw</title>
<path fill="none" stroke="gray" d="M28,-52C28,-52 556,-52 556,-52 562,-52 568,-58 568,-64 568,-64 568,-848 568,-848 568,-854 562,-860 556,-860 556,-860 28,-860 28,-860 22,-860 16,-854 16,-848 16,-848 16,-64 16,-64 16,-58 22,-52 28,-52"/>
<text text-anchor="middle" x="292" y="-847.2" font-family="Times,serif" font-size="11.00" fill="gray">acdhOeaw</text>
</g>
<g id="clust3" class="cluster"><title>cluster_\acdhOeaw\oai</title>
<path fill="none" stroke="gray" d="M36,-60C36,-60 548,-60 548,-60 554,-60 560,-66 560,-72 560,-72 560,-820 560,-820 560,-826 554,-832 548,-832 548,-832 36,-832 36,-832 30,-832 24,-826 24,-820 24,-820 24,-72 24,-72 24,-66 30,-60 36,-60"/>
<text text-anchor="middle" x="292" y="-819.2" font-family="Times,serif" font-size="11.00" fill="gray">oai</text>
</g>
<g id="clust4" class="cluster"><title>cluster_\acdhOeaw\oai\metadata</title>
<path fill="none" stroke="gray" d="M44,-678C44,-678 533.5,-678 533.5,-678 539.5,-678 545.5,-684 545.5,-690 545.5,-690 545.5,-792 545.5,-792 545.5,-798 539.5,-804 533.5,-804 533.5,-804 44,-804 44,-804 38,-804 32,-798 32,-792 32,-792 32,-690 32,-690 32,-684 38,-678 44,-678"/>
<text text-anchor="middle" x="288.75" y="-791.2" font-family="Times,serif" font-size="11.00" fill="gray">metadata</text>
</g>
<g id="clust5" class="cluster"><title>cluster_\acdhOeaw\oai\data</title>
<path fill="none" stroke="gray" d="M437,-436C437,-436 540,-436 540,-436 546,-436 552,-442 552,-448 552,-448 552,-658 552,-658 552,-664 546,-670 540,-670 540,-670 437,-670 437,-670 431,-670 425,-664 425,-658 425,-658 425,-448 425,-448 425,-442 431,-436 437,-436"/>
<text text-anchor="middle" x="488.5" y="-657.2" font-family="Times,serif" font-size="11.00" fill="gray">data</text>
</g>
<g id="clust6" class="cluster"><title>cluster_\acdhOeaw\oai\search</title>
<path fill="none" stroke="gray" d="M247,-356C247,-356 526.5,-356 526.5,-356 532.5,-356 538.5,-362 538.5,-368 538.5,-368 538.5,-416 538.5,-416 538.5,-422 532.5,-428 526.5,-428 526.5,-428 247,-428 247,-428 241,-428 235,-422 235,-416 235,-416 235,-368 235,-368 235,-362 241,-356 247,-356"/>
<text text-anchor="middle" x="386.75" y="-415.2" font-family="Times,serif" font-size="11.00" fill="gray">search</text>
</g>
<g id="clust7" class="cluster"><title>cluster_\acdhOeaw\oai\set</title>
<path fill="none" stroke="gray" d="M257,-168C257,-168 516.5,-168 516.5,-168 522.5,-168 528.5,-174 528.5,-180 528.5,-180 528.5,-336 528.5,-336 528.5,-342 522.5,-348 516.5,-348 516.5,-348 257,-348 257,-348 251,-348 245,-342 245,-336 245,-336 245,-180 245,-180 245,-174 251,-168 257,-168"/>
<text text-anchor="middle" x="386.75" y="-335.2" font-family="Times,serif" font-size="11.00" fill="gray">set</text>
</g>
<!-- \\acdhOeaw\\oai\\metadata\\DcMetadata -->
<g id="node1" class="node"><title>\\acdhOeaw\\oai\\metadata\\DcMetadata</title>
<polygon fill="none" stroke="black" points="344,-776 260,-776 260,-740 344,-740 344,-776"/>
<text text-anchor="middle" x="302" y="-755.2" font-family="Courier,monospace" font-size="11.00">DcMetadata</text>
</g>
<!-- \\acdhOeaw\\oai\\metadata\\MetadataInterface -->
<g id="node4" class="node"><title>\\acdhOeaw\\oai\\metadata\\MetadataInterface</title>
<polygon fill="none" stroke="black" points="171,-749 40,-749 40,-713 171,-713 171,-749"/>
<text text-anchor="middle" x="105.5" y="-728.2" font-family="Courier,monospace" font-size="11.00">MetadataInterface</text>
</g>
<!-- \\acdhOeaw\\oai\\metadata\\DcMetadata&#45;&gt;\\acdhOeaw\\oai\\metadata\\MetadataInterface -->
<g id="edge1" class="edge"><title>\\acdhOeaw\\oai\\metadata\\DcMetadata&#45;&gt;\\acdhOeaw\\oai\\metadata\\MetadataInterface</title>
<path fill="none" stroke="black" stroke-dasharray="1,5" d="M259.752,-752.274C236.91,-749.103 207.817,-745.065 181.13,-741.36"/>
<polygon fill="none" stroke="black" points="181.424,-737.867 171.038,-739.959 180.461,-744.801 181.424,-737.867"/>
</g>
<!-- \\acdhOeaw\\oai\\metadata\\ResMetadata -->
<g id="node2" class="node"><title>\\acdhOeaw\\oai\\metadata\\ResMetadata</title>
<polygon fill="none" stroke="black" points="347.5,-722 256.5,-722 256.5,-686 347.5,-686 347.5,-722"/>
<text text-anchor="middle" x="302" y="-701.2" font-family="Courier,monospace" font-size="11.00">ResMetadata</text>
</g>
<!-- \\acdhOeaw\\oai\\metadata\\ResMetadata&#45;&gt;\\acdhOeaw\\oai\\metadata\\MetadataInterface -->
<g id="edge2" class="edge"><title>\\acdhOeaw\\oai\\metadata\\ResMetadata&#45;&gt;\\acdhOeaw\\oai\\metadata\\MetadataInterface</title>
<path fill="none" stroke="black" stroke-dasharray="1,5" d="M256.378,-710.194C234.1,-713.287 206.55,-717.111 181.171,-720.634"/>
<polygon fill="none" stroke="black" points="180.621,-717.177 171.197,-722.019 181.583,-724.111 180.621,-717.177"/>
</g>
<!-- \\acdhOeaw\\oai\\metadata\\CmdiMetadata -->
<g id="node3" class="node"><title>\\acdhOeaw\\oai\\metadata\\CmdiMetadata</title>
<polygon fill="none" stroke="black" points="537.5,-722 439.5,-722 439.5,-686 537.5,-686 537.5,-722"/>
<text text-anchor="middle" x="488.5" y="-701.2" font-family="Courier,monospace" font-size="11.00">CmdiMetadata</text>
</g>
<!-- \\acdhOeaw\\oai\\metadata\\CmdiMetadata&#45;&gt;\\acdhOeaw\\oai\\metadata\\ResMetadata -->
<g id="edge7" class="edge"><title>\\acdhOeaw\\oai\\metadata\\CmdiMetadata&#45;&gt;\\acdhOeaw\\oai\\metadata\\ResMetadata</title>
<path fill="none" stroke="black" d="M439.025,-704C414.047,-704 383.496,-704 357.68,-704"/>
<polygon fill="none" stroke="black" points="357.673,-700.5 347.673,-704 357.673,-707.5 357.673,-700.5"/>
</g>
<!-- \\acdhOeaw\\oai\\data\\HeaderData -->
<g id="node5" class="node"><title>\\acdhOeaw\\oai\\data\\HeaderData</title>
<polygon fill="none" stroke="black" points="530.5,-642 446.5,-642 446.5,-606 530.5,-606 530.5,-642"/>
<text text-anchor="middle" x="488.5" y="-621.2" font-family="Courier,monospace" font-size="11.00">HeaderData</text>
</g>
<!-- \\acdhOeaw\\oai\\data\\RepositoryInfo -->
<g id="node6" class="node"><title>\\acdhOeaw\\oai\\data\\RepositoryInfo</title>
<polygon fill="none" stroke="black" points="544,-588 433,-588 433,-552 544,-552 544,-588"/>
<text text-anchor="middle" x="488.5" y="-567.2" font-family="Courier,monospace" font-size="11.00">RepositoryInfo</text>
</g>
<!-- \\acdhOeaw\\oai\\data\\SetInfo -->
<g id="node7" class="node"><title>\\acdhOeaw\\oai\\data\\SetInfo</title>
<polygon fill="none" stroke="black" points="520.5,-534 456.5,-534 456.5,-498 520.5,-498 520.5,-534"/>
<text text-anchor="middle" x="488.5" y="-513.2" font-family="Courier,monospace" font-size="11.00">SetInfo</text>
</g>
<!-- \\acdhOeaw\\oai\\data\\MetadataFormat -->
<g id="node8" class="node"><title>\\acdhOeaw\\oai\\data\\MetadataFormat</title>
<polygon fill="none" stroke="black" points="544,-480 433,-480 433,-444 544,-444 544,-480"/>
<text text-anchor="middle" x="488.5" y="-459.2" font-family="Courier,monospace" font-size="11.00">MetadataFormat</text>
</g>
<!-- \\acdhOeaw\\oai\\search\\BaseSearch -->
<g id="node9" class="node"><title>\\acdhOeaw\\oai\\search\\BaseSearch</title>
<polygon fill="none" stroke="black" points="530.5,-400 446.5,-400 446.5,-364 530.5,-364 530.5,-400"/>
<text text-anchor="middle" x="488.5" y="-379.2" font-family="Courier,monospace" font-size="11.00">BaseSearch</text>
</g>
<!-- \\acdhOeaw\\oai\\search\\SearchInterface -->
<g id="node10" class="node"><title>\\acdhOeaw\\oai\\search\\SearchInterface</title>
<polygon fill="none" stroke="black" points="361,-400 243,-400 243,-364 361,-364 361,-400"/>
<text text-anchor="middle" x="302" y="-379.2" font-family="Courier,monospace" font-size="11.00">SearchInterface</text>
</g>
<!-- \\acdhOeaw\\oai\\search\\BaseSearch&#45;&gt;\\acdhOeaw\\oai\\search\\SearchInterface -->
<g id="edge3" class="edge"><title>\\acdhOeaw\\oai\\search\\BaseSearch&#45;&gt;\\acdhOeaw\\oai\\search\\SearchInterface</title>
<path fill="none" stroke="black" stroke-dasharray="1,5" d="M446.095,-382C424.057,-382 396.39,-382 371.272,-382"/>
<polygon fill="none" stroke="black" points="371.057,-378.5 361.056,-382 371.056,-385.5 371.057,-378.5"/>
</g>
<!-- \\acdhOeaw\\oai\\set\\Complex -->
<g id="node11" class="node"><title>\\acdhOeaw\\oai\\set\\Complex</title>
<polygon fill="none" stroke="black" points="520.5,-320 456.5,-320 456.5,-284 520.5,-284 520.5,-320"/>
<text text-anchor="middle" x="488.5" y="-299.2" font-family="Courier,monospace" font-size="11.00">Complex</text>
</g>
<!-- \\acdhOeaw\\oai\\set\\SetInterface -->
<g id="node13" class="node"><title>\\acdhOeaw\\oai\\set\\SetInterface</title>
<polygon fill="none" stroke="black" points="351,-266 253,-266 253,-230 351,-230 351,-266"/>
<text text-anchor="start" x="268" y="-251.2" font-family="Courier,monospace" font-size="11.00">«abstract»</text>
<text text-anchor="start" x="261" y="-239.2" font-family="Courier,monospace" font-size="11.00">SetInterface</text>
</g>
<!-- \\acdhOeaw\\oai\\set\\Complex&#45;&gt;\\acdhOeaw\\oai\\set\\SetInterface -->
<g id="edge5" class="edge"><title>\\acdhOeaw\\oai\\set\\Complex&#45;&gt;\\acdhOeaw\\oai\\set\\SetInterface</title>
<path fill="none" stroke="black" d="M456.202,-292.84C430.227,-285.237 392.581,-274.219 361.108,-265.007"/>
<polygon fill="none" stroke="black" points="361.709,-261.536 351.129,-262.087 359.743,-268.255 361.709,-261.536"/>
</g>
<!-- \\acdhOeaw\\oai\\set\\NoSets -->
<g id="node12" class="node"><title>\\acdhOeaw\\oai\\set\\NoSets</title>
<polygon fill="none" stroke="black" points="517,-266 460,-266 460,-230 517,-230 517,-266"/>
<text text-anchor="middle" x="488.5" y="-245.2" font-family="Courier,monospace" font-size="11.00">NoSets</text>
</g>
<!-- \\acdhOeaw\\oai\\set\\NoSets&#45;&gt;\\acdhOeaw\\oai\\set\\SetInterface -->
<g id="edge6" class="edge"><title>\\acdhOeaw\\oai\\set\\NoSets&#45;&gt;\\acdhOeaw\\oai\\set\\SetInterface</title>
<path fill="none" stroke="black" d="M459.878,-248C434.026,-248 394.566,-248 361.69,-248"/>
<polygon fill="none" stroke="black" points="361.273,-244.5 351.273,-248 361.273,-251.5 361.273,-244.5"/>
</g>
<!-- \\acdhOeaw\\oai\\set\\Simple -->
<g id="node14" class="node"><title>\\acdhOeaw\\oai\\set\\Simple</title>
<polygon fill="none" stroke="black" points="517,-212 460,-212 460,-176 517,-176 517,-212"/>
<text text-anchor="middle" x="488.5" y="-191.2" font-family="Courier,monospace" font-size="11.00">Simple</text>
</g>
<!-- \\acdhOeaw\\oai\\set\\Simple&#45;&gt;\\acdhOeaw\\oai\\set\\SetInterface -->
<g id="edge8" class="edge"><title>\\acdhOeaw\\oai\\set\\Simple&#45;&gt;\\acdhOeaw\\oai\\set\\SetInterface</title>
<path fill="none" stroke="black" d="M459.878,-202.084C433.915,-209.684 394.224,-221.3 361.263,-230.947"/>
<polygon fill="none" stroke="black" points="359.887,-227.703 351.273,-233.871 361.853,-234.421 359.887,-227.703"/>
</g>
<!-- \\acdhOeaw\\oai\\Oai -->
<g id="node15" class="node"><title>\\acdhOeaw\\oai\\Oai</title>
<polygon fill="none" stroke="black" points="515.5,-158 461.5,-158 461.5,-122 515.5,-122 515.5,-158"/>
<text text-anchor="middle" x="488.5" y="-137.2" font-family="Courier,monospace" font-size="11.00">Oai</text>
</g>
<!-- \\acdhOeaw\\oai\\OaiException -->
<g id="node16" class="node"><title>\\acdhOeaw\\oai\\OaiException</title>
<polygon fill="none" stroke="black" points="537.5,-104 439.5,-104 439.5,-68 537.5,-68 537.5,-104"/>
<text text-anchor="middle" x="488.5" y="-83.2" font-family="Courier,monospace" font-size="11.00">OaiException</text>
</g>
<!-- \\Exception -->
<g id="node17" class="node"><title>\\Exception</title>
<ellipse fill="none" stroke="black" cx="302" cy="-18" rx="48.9926" ry="18"/>
<text text-anchor="middle" x="302" y="-14.3" font-family="Times,serif" font-size="14.00" fill="gray">\Exception</text>
</g>
<!-- \\acdhOeaw\\oai\\OaiException&#45;&gt;\\Exception -->
<g id="edge4" class="edge"><title>\\acdhOeaw\\oai\\OaiException&#45;&gt;\\Exception</title>
<path fill="none" stroke="black" d="M439.025,-68.1338C410.373,-57.5738 374.387,-44.3108 346.627,-34.0793"/>
<polygon fill="none" stroke="black" points="347.77,-30.7704 337.176,-30.5961 345.349,-37.3385 347.77,-30.7704"/>
</g>
</g>
</svg>
