<?xml version="1.0" encoding="UTF-8" standalone="no"?>
<!DOCTYPE svg PUBLIC "-//W3C//DTD SVG 1.1//EN"
 "http://www.w3.org/Graphics/SVG/1.1/DTD/svg11.dtd">
<!-- Generated by graphviz version 2.38.0 (20140413.2041)
 -->
<!-- Title: G Pages: 1 -->
<svg width="599pt" height="1092pt"
 viewBox="0.00 0.00 599.00 1092.00" xmlns="http://www.w3.org/2000/svg" xmlns:xlink="http://www.w3.org/1999/xlink">
<g id="graph0" class="graph" transform="scale(1 1) rotate(0) translate(4 1088)">
<title>G</title>
<polygon fill="white" stroke="none" points="-4,4 -4,-1088 595,-1088 595,4 -4,4"/>
<g id="clust1" class="cluster"><title>cluster_Global</title>
<path fill="none" stroke="gray" d="M20,-44C20,-44 571,-44 571,-44 577,-44 583,-50 583,-56 583,-56 583,-1064 583,-1064 583,-1070 577,-1076 571,-1076 571,-1076 20,-1076 20,-1076 14,-1076 8,-1070 8,-1064 8,-1064 8,-56 8,-56 8,-50 14,-44 20,-44"/>
<text text-anchor="middle" x="295.5" y="-1063.2" font-family="Times,serif" font-size="11.00" fill="gray">Global</text>
</g>
<g id="clust2" class="cluster"><title>cluster_\acdhOeaw</title>
<path fill="none" stroke="gray" d="M28,-52C28,-52 563,-52 563,-52 569,-52 575,-58 575,-64 575,-64 575,-1036 575,-1036 575,-1042 569,-1048 563,-1048 563,-1048 28,-1048 28,-1048 22,-1048 16,-1042 16,-1036 16,-1036 16,-64 16,-64 16,-58 22,-52 28,-52"/>
<text text-anchor="middle" x="295.5" y="-1035.2" font-family="Times,serif" font-size="11.00" fill="gray">acdhOeaw</text>
</g>
<g id="clust3" class="cluster"><title>cluster_\acdhOeaw\oai</title>
<path fill="none" stroke="gray" d="M36,-60C36,-60 555,-60 555,-60 561,-60 567,-66 567,-72 567,-72 567,-1008 567,-1008 567,-1014 561,-1020 555,-1020 555,-1020 36,-1020 36,-1020 30,-1020 24,-1014 24,-1008 24,-1008 24,-72 24,-72 24,-66 30,-60 36,-60"/>
<text text-anchor="middle" x="295.5" y="-1007.2" font-family="Times,serif" font-size="11.00" fill="gray">oai</text>
</g>
<g id="clust4" class="cluster"><title>cluster_\acdhOeaw\oai\metadata</title>
<path fill="none" stroke="gray" d="M44,-812C44,-812 540.5,-812 540.5,-812 546.5,-812 552.5,-818 552.5,-824 552.5,-824 552.5,-980 552.5,-980 552.5,-986 546.5,-992 540.5,-992 540.5,-992 44,-992 44,-992 38,-992 32,-986 32,-980 32,-980 32,-824 32,-824 32,-818 38,-812 44,-812"/>
<text text-anchor="middle" x="292.25" y="-979.2" font-family="Times,serif" font-size="11.00" fill="gray">metadata</text>
</g>
<g id="clust5" class="cluster"><title>cluster_\acdhOeaw\oai\data</title>
<path fill="none" stroke="gray" d="M444,-570C444,-570 547,-570 547,-570 553,-570 559,-576 559,-582 559,-582 559,-792 559,-792 559,-798 553,-804 547,-804 547,-804 444,-804 444,-804 438,-804 432,-798 432,-792 432,-792 432,-582 432,-582 432,-576 438,-570 444,-570"/>
<text text-anchor="middle" x="495.5" y="-791.2" font-family="Times,serif" font-size="11.00" fill="gray">data</text>
</g>
<g id="clust6" class="cluster"><title>cluster_\acdhOeaw\oai\deleted</title>
<path fill="none" stroke="gray" d="M247,-436C247,-436 537,-436 537,-436 543,-436 549,-442 549,-448 549,-448 549,-550 549,-550 549,-556 543,-562 537,-562 537,-562 247,-562 247,-562 241,-562 235,-556 235,-550 235,-550 235,-448 235,-448 235,-442 241,-436 247,-436"/>
<text text-anchor="middle" x="392" y="-549.2" font-family="Times,serif" font-size="11.00" fill="gray">deleted</text>
</g>
<g id="clust7" class="cluster"><title>cluster_\acdhOeaw\oai\search</title>
<path fill="none" stroke="gray" d="M250.5,-356C250.5,-356 533.5,-356 533.5,-356 539.5,-356 545.5,-362 545.5,-368 545.5,-368 545.5,-416 545.5,-416 545.5,-422 539.5,-428 533.5,-428 533.5,-428 250.5,-428 250.5,-428 244.5,-428 238.5,-422 238.5,-416 238.5,-416 238.5,-368 238.5,-368 238.5,-362 244.5,-356 250.5,-356"/>
<text text-anchor="middle" x="392" y="-415.2" font-family="Times,serif" font-size="11.00" fill="gray">search</text>
</g>
<g id="clust8" class="cluster"><title>cluster_\acdhOeaw\oai\set</title>
<path fill="none" stroke="gray" d="M260.5,-168C260.5,-168 523.5,-168 523.5,-168 529.5,-168 535.5,-174 535.5,-180 535.5,-180 535.5,-336 535.5,-336 535.5,-342 529.5,-348 523.5,-348 523.5,-348 260.5,-348 260.5,-348 254.5,-348 248.5,-342 248.5,-336 248.5,-336 248.5,-180 248.5,-180 248.5,-174 254.5,-168 260.5,-168"/>
<text text-anchor="middle" x="392" y="-335.2" font-family="Times,serif" font-size="11.00" fill="gray">set</text>
</g>
<!-- \\acdhOeaw\\oai\\metadata\\DcMetadata -->
<g id="node1" class="node"><title>\\acdhOeaw\\oai\\metadata\\DcMetadata</title>
<polygon fill="none" stroke="black" points="347.5,-964 263.5,-964 263.5,-928 347.5,-928 347.5,-964"/>
<text text-anchor="middle" x="305.5" y="-943.2" font-family="Courier,monospace" font-size="11.00">DcMetadata</text>
</g>
<!-- \\acdhOeaw\\oai\\metadata\\MetadataInterface -->
<g id="node5" class="node"><title>\\acdhOeaw\\oai\\metadata\\MetadataInterface</title>
<polygon fill="none" stroke="black" points="171,-910 40,-910 40,-874 171,-874 171,-910"/>
<text text-anchor="middle" x="105.5" y="-889.2" font-family="Courier,monospace" font-size="11.00">MetadataInterface</text>
</g>
<!-- \\acdhOeaw\\oai\\metadata\\DcMetadata&#45;&gt;\\acdhOeaw\\oai\\metadata\\MetadataInterface -->
<g id="edge1" class="edge"><title>\\acdhOeaw\\oai\\metadata\\DcMetadata&#45;&gt;\\acdhOeaw\\oai\\metadata\\MetadataInterface</title>
<path fill="none" stroke="black" stroke-dasharray="1,5" d="M263.474,-934.811C239.663,-928.317 208.943,-919.939 181.001,-912.318"/>
<polygon fill="none" stroke="black" points="181.818,-908.913 171.249,-909.659 179.976,-915.667 181.818,-908.913"/>
</g>
<!-- \\acdhOeaw\\oai\\metadata\\ResMetadata -->
<g id="node2" class="node"><title>\\acdhOeaw\\oai\\metadata\\ResMetadata</title>
<polygon fill="none" stroke="black" points="351,-856 260,-856 260,-820 351,-820 351,-856"/>
<text text-anchor="middle" x="305.5" y="-835.2" font-family="Courier,monospace" font-size="11.00">ResMetadata</text>
</g>
<!-- \\acdhOeaw\\oai\\metadata\\ResMetadata&#45;&gt;\\acdhOeaw\\oai\\metadata\\MetadataInterface -->
<g id="edge2" class="edge"><title>\\acdhOeaw\\oai\\metadata\\ResMetadata&#45;&gt;\\acdhOeaw\\oai\\metadata\\MetadataInterface</title>
<path fill="none" stroke="black" stroke-dasharray="1,5" d="M259.571,-850.253C236.402,-856.572 207.534,-864.445 181.132,-871.646"/>
<polygon fill="none" stroke="black" points="179.877,-868.36 171.151,-874.368 181.719,-875.113 179.877,-868.36"/>
</g>
<!-- \\acdhOeaw\\oai\\metadata\\AcdhDcMetadata -->
<g id="node3" class="node"><title>\\acdhOeaw\\oai\\metadata\\AcdhDcMetadata</title>
<polygon fill="none" stroke="black" points="361,-910 250,-910 250,-874 361,-874 361,-910"/>
<text text-anchor="middle" x="305.5" y="-889.2" font-family="Courier,monospace" font-size="11.00">AcdhDcMetadata</text>
</g>
<!-- \\acdhOeaw\\oai\\metadata\\AcdhDcMetadata&#45;&gt;\\acdhOeaw\\oai\\metadata\\MetadataInterface -->
<g id="edge4" class="edge"><title>\\acdhOeaw\\oai\\metadata\\AcdhDcMetadata&#45;&gt;\\acdhOeaw\\oai\\metadata\\MetadataInterface</title>
<path fill="none" stroke="black" stroke-dasharray="1,5" d="M249.871,-892C228.728,-892 204.181,-892 181.437,-892"/>
<polygon fill="none" stroke="black" points="181.132,-888.5 171.132,-892 181.132,-895.5 181.132,-888.5"/>
</g>
<!-- \\acdhOeaw\\oai\\metadata\\CmdiMetadata -->
<g id="node4" class="node"><title>\\acdhOeaw\\oai\\metadata\\CmdiMetadata</title>
<polygon fill="none" stroke="black" points="544.5,-856 446.5,-856 446.5,-820 544.5,-820 544.5,-856"/>
<text text-anchor="middle" x="495.5" y="-835.2" font-family="Courier,monospace" font-size="11.00">CmdiMetadata</text>
</g>
<!-- \\acdhOeaw\\oai\\metadata\\CmdiMetadata&#45;&gt;\\acdhOeaw\\oai\\metadata\\ResMetadata -->
<g id="edge10" class="edge"><title>\\acdhOeaw\\oai\\metadata\\CmdiMetadata&#45;&gt;\\acdhOeaw\\oai\\metadata\\ResMetadata</title>
<path fill="none" stroke="black" d="M446.085,-838C420.135,-838 388.068,-838 361.216,-838"/>
<polygon fill="none" stroke="black" points="361.204,-834.5 351.204,-838 361.204,-841.5 361.204,-834.5"/>
</g>
<!-- \\acdhOeaw\\oai\\data\\HeaderData -->
<g id="node6" class="node"><title>\\acdhOeaw\\oai\\data\\HeaderData</title>
<polygon fill="none" stroke="black" points="537.5,-776 453.5,-776 453.5,-740 537.5,-740 537.5,-776"/>
<text text-anchor="middle" x="495.5" y="-755.2" font-family="Courier,monospace" font-size="11.00">HeaderData</text>
</g>
<!-- \\acdhOeaw\\oai\\data\\RepositoryInfo -->
<g id="node7" class="node"><title>\\acdhOeaw\\oai\\data\\RepositoryInfo</title>
<polygon fill="none" stroke="black" points="551,-722 440,-722 440,-686 551,-686 551,-722"/>
<text text-anchor="middle" x="495.5" y="-701.2" font-family="Courier,monospace" font-size="11.00">RepositoryInfo</text>
</g>
<!-- \\acdhOeaw\\oai\\data\\SetInfo -->
<g id="node8" class="node"><title>\\acdhOeaw\\oai\\data\\SetInfo</title>
<polygon fill="none" stroke="black" points="527.5,-668 463.5,-668 463.5,-632 527.5,-632 527.5,-668"/>
<text text-anchor="middle" x="495.5" y="-647.2" font-family="Courier,monospace" font-size="11.00">SetInfo</text>
</g>
<!-- \\acdhOeaw\\oai\\data\\MetadataFormat -->
<g id="node9" class="node"><title>\\acdhOeaw\\oai\\data\\MetadataFormat</title>
<polygon fill="none" stroke="black" points="551,-614 440,-614 440,-578 551,-578 551,-614"/>
<text text-anchor="middle" x="495.5" y="-593.2" font-family="Courier,monospace" font-size="11.00">MetadataFormat</text>
</g>
<!-- \\acdhOeaw\\oai\\deleted\\DeletedInterface -->
<g id="node10" class="node"><title>\\acdhOeaw\\oai\\deleted\\DeletedInterface</title>
<polygon fill="none" stroke="black" points="368,-507 243,-507 243,-471 368,-471 368,-507"/>
<text text-anchor="start" x="271.5" y="-492.2" font-family="Courier,monospace" font-size="11.00">«abstract»</text>
<text text-anchor="start" x="251" y="-480.2" font-family="Courier,monospace" font-size="11.00">DeletedInterface</text>
</g>
<!-- \\acdhOeaw\\oai\\deleted\\No -->
<g id="node11" class="node"><title>\\acdhOeaw\\oai\\deleted\\No</title>
<polygon fill="none" stroke="black" points="522.5,-534 468.5,-534 468.5,-498 522.5,-498 522.5,-534"/>
<text text-anchor="middle" x="495.5" y="-513.2" font-family="Courier,monospace" font-size="11.00">No</text>
</g>
<!-- \\acdhOeaw\\oai\\deleted\\No&#45;&gt;\\acdhOeaw\\oai\\deleted\\DeletedInterface -->
<g id="edge6" class="edge"><title>\\acdhOeaw\\oai\\deleted\\No&#45;&gt;\\acdhOeaw\\oai\\deleted\\DeletedInterface</title>
<path fill="none" stroke="black" d="M468.359,-512.246C445.053,-508.899 409.83,-503.84 378.187,-499.295"/>
<polygon fill="none" stroke="black" points="378.454,-495.798 368.058,-497.841 377.459,-502.727 378.454,-495.798"/>
</g>
<!-- \\acdhOeaw\\oai\\deleted\\RdfProperty -->
<g id="node12" class="node"><title>\\acdhOeaw\\oai\\deleted\\RdfProperty</title>
<polygon fill="none" stroke="black" points="541,-480 450,-480 450,-444 541,-444 541,-480"/>
<text text-anchor="middle" x="495.5" y="-459.2" font-family="Courier,monospace" font-size="11.00">RdfProperty</text>
</g>
<!-- \\acdhOeaw\\oai\\deleted\\RdfProperty&#45;&gt;\\acdhOeaw\\oai\\deleted\\DeletedInterface -->
<g id="edge9" class="edge"><title>\\acdhOeaw\\oai\\deleted\\RdfProperty&#45;&gt;\\acdhOeaw\\oai\\deleted\\DeletedInterface</title>
<path fill="none" stroke="black" d="M449.947,-468.399C428.569,-471.469 402.423,-475.224 378.335,-478.683"/>
<polygon fill="none" stroke="black" points="377.559,-475.259 368.158,-480.145 378.554,-482.188 377.559,-475.259"/>
</g>
<!-- \\acdhOeaw\\oai\\search\\BaseSearch -->
<g id="node13" class="node"><title>\\acdhOeaw\\oai\\search\\BaseSearch</title>
<polygon fill="none" stroke="black" points="537.5,-400 453.5,-400 453.5,-364 537.5,-364 537.5,-400"/>
<text text-anchor="middle" x="495.5" y="-379.2" font-family="Courier,monospace" font-size="11.00">BaseSearch</text>
</g>
<!-- \\acdhOeaw\\oai\\search\\SearchInterface -->
<g id="node14" class="node"><title>\\acdhOeaw\\oai\\search\\SearchInterface</title>
<polygon fill="none" stroke="black" points="364.5,-400 246.5,-400 246.5,-364 364.5,-364 364.5,-400"/>
<text text-anchor="middle" x="305.5" y="-379.2" font-family="Courier,monospace" font-size="11.00">SearchInterface</text>
</g>
<!-- \\acdhOeaw\\oai\\search\\BaseSearch&#45;&gt;\\acdhOeaw\\oai\\search\\SearchInterface -->
<g id="edge3" class="edge"><title>\\acdhOeaw\\oai\\search\\BaseSearch&#45;&gt;\\acdhOeaw\\oai\\search\\SearchInterface</title>
<path fill="none" stroke="black" stroke-dasharray="1,5" d="M453.243,-382C430.342,-382 401.265,-382 375.046,-382"/>
<polygon fill="none" stroke="black" points="374.777,-378.5 364.777,-382 374.777,-385.5 374.777,-378.5"/>
</g>
<!-- \\acdhOeaw\\oai\\set\\Complex -->
<g id="node15" class="node"><title>\\acdhOeaw\\oai\\set\\Complex</title>
<polygon fill="none" stroke="black" points="527.5,-320 463.5,-320 463.5,-284 527.5,-284 527.5,-320"/>
<text text-anchor="middle" x="495.5" y="-299.2" font-family="Courier,monospace" font-size="11.00">Complex</text>
</g>
<!-- \\acdhOeaw\\oai\\set\\SetInterface -->
<g id="node17" class="node"><title>\\acdhOeaw\\oai\\set\\SetInterface</title>
<polygon fill="none" stroke="black" points="354.5,-266 256.5,-266 256.5,-230 354.5,-230 354.5,-266"/>
<text text-anchor="start" x="271.5" y="-251.2" font-family="Courier,monospace" font-size="11.00">«abstract»</text>
<text text-anchor="start" x="264.5" y="-239.2" font-family="Courier,monospace" font-size="11.00">SetInterface</text>
</g>
<!-- \\acdhOeaw\\oai\\set\\Complex&#45;&gt;\\acdhOeaw\\oai\\set\\SetInterface -->
<g id="edge7" class="edge"><title>\\acdhOeaw\\oai\\set\\Complex&#45;&gt;\\acdhOeaw\\oai\\set\\SetInterface</title>
<path fill="none" stroke="black" d="M463.456,-293.083C436.614,-285.373 397.096,-274.022 364.43,-264.639"/>
<polygon fill="none" stroke="black" points="365.111,-261.194 354.533,-261.797 363.178,-267.922 365.111,-261.194"/>
</g>
<!-- \\acdhOeaw\\oai\\set\\NoSets -->
<g id="node16" class="node"><title>\\acdhOeaw\\oai\\set\\NoSets</title>
<polygon fill="none" stroke="black" points="524,-266 467,-266 467,-230 524,-230 524,-266"/>
<text text-anchor="middle" x="495.5" y="-245.2" font-family="Courier,monospace" font-size="11.00">NoSets</text>
</g>
<!-- \\acdhOeaw\\oai\\set\\NoSets&#45;&gt;\\acdhOeaw\\oai\\set\\SetInterface -->
<g id="edge8" class="edge"><title>\\acdhOeaw\\oai\\set\\NoSets&#45;&gt;\\acdhOeaw\\oai\\set\\SetInterface</title>
<path fill="none" stroke="black" d="M466.76,-248C440.102,-248 398.977,-248 365.062,-248"/>
<polygon fill="none" stroke="black" points="364.793,-244.5 354.793,-248 364.793,-251.5 364.793,-244.5"/>
</g>
<!-- \\acdhOeaw\\oai\\set\\Simple -->
<g id="node18" class="node"><title>\\acdhOeaw\\oai\\set\\Simple</title>
<polygon fill="none" stroke="black" points="524,-212 467,-212 467,-176 524,-176 524,-212"/>
<text text-anchor="middle" x="495.5" y="-191.2" font-family="Courier,monospace" font-size="11.00">Simple</text>
</g>
<!-- \\acdhOeaw\\oai\\set\\Simple&#45;&gt;\\acdhOeaw\\oai\\set\\SetInterface -->
<g id="edge11" class="edge"><title>\\acdhOeaw\\oai\\set\\Simple&#45;&gt;\\acdhOeaw\\oai\\set\\SetInterface</title>
<path fill="none" stroke="black" d="M466.76,-201.968C439.987,-209.658 398.622,-221.539 364.624,-231.305"/>
<polygon fill="none" stroke="black" points="363.438,-228.004 354.793,-234.129 365.37,-234.732 363.438,-228.004"/>
</g>
<!-- \\acdhOeaw\\oai\\Oai -->
<g id="node19" class="node"><title>\\acdhOeaw\\oai\\Oai</title>
<polygon fill="none" stroke="black" points="522.5,-158 468.5,-158 468.5,-122 522.5,-122 522.5,-158"/>
<text text-anchor="middle" x="495.5" y="-137.2" font-family="Courier,monospace" font-size="11.00">Oai</text>
</g>
<!-- \\acdhOeaw\\oai\\OaiException -->
<g id="node20" class="node"><title>\\acdhOeaw\\oai\\OaiException</title>
<polygon fill="none" stroke="black" points="544.5,-104 446.5,-104 446.5,-68 544.5,-68 544.5,-104"/>
<text text-anchor="middle" x="495.5" y="-83.2" font-family="Courier,monospace" font-size="11.00">OaiException</text>
</g>
<!-- \\Exception -->
<g id="node21" class="node"><title>\\Exception</title>
<ellipse fill="none" stroke="black" cx="305.5" cy="-18" rx="48.9926" ry="18"/>
<text text-anchor="middle" x="305.5" y="-14.3" font-family="Times,serif" font-size="14.00" fill="gray">\Exception</text>
</g>
<!-- \\acdhOeaw\\oai\\OaiException&#45;&gt;\\Exception -->
<g id="edge5" class="edge"><title>\\acdhOeaw\\oai\\OaiException&#45;&gt;\\Exception</title>
<path fill="none" stroke="black" d="M446.085,-68.4883C416.597,-57.8224 379.212,-44.3001 350.555,-33.9347"/>
<polygon fill="none" stroke="black" points="351.404,-30.5199 340.81,-30.4098 349.023,-37.1026 351.404,-30.5199"/>
</g>
</g>
</svg>
