<?xml version="1.0" encoding="UTF-8" standalone="no"?>
<!DOCTYPE svg PUBLIC "-//W3C//DTD SVG 1.1//EN"
 "http://www.w3.org/Graphics/SVG/1.1/DTD/svg11.dtd">
<!-- Generated by graphviz version 2.38.0 (20140413.2041)
 -->
<!-- Title: G Pages: 1 -->
<svg width="599pt" height="1038pt"
 viewBox="0.00 0.00 599.00 1038.00" xmlns="http://www.w3.org/2000/svg" xmlns:xlink="http://www.w3.org/1999/xlink">
<g id="graph0" class="graph" transform="scale(1 1) rotate(0) translate(4 1034)">
<title>G</title>
<polygon fill="white" stroke="none" points="-4,4 -4,-1034 595,-1034 595,4 -4,4"/>
<g id="clust1" class="cluster"><title>cluster_Global</title>
<path fill="none" stroke="gray" d="M20,-44C20,-44 571,-44 571,-44 577,-44 583,-50 583,-56 583,-56 583,-1010 583,-1010 583,-1016 577,-1022 571,-1022 571,-1022 20,-1022 20,-1022 14,-1022 8,-1016 8,-1010 8,-1010 8,-56 8,-56 8,-50 14,-44 20,-44"/>
<text text-anchor="middle" x="295.5" y="-1009.2" font-family="Times,serif" font-size="11.00" fill="gray">Global</text>
</g>
<g id="clust2" class="cluster"><title>cluster_\acdhOeaw</title>
<path fill="none" stroke="gray" d="M28,-52C28,-52 563,-52 563,-52 569,-52 575,-58 575,-64 575,-64 575,-982 575,-982 575,-988 569,-994 563,-994 563,-994 28,-994 28,-994 22,-994 16,-988 16,-982 16,-982 16,-64 16,-64 16,-58 22,-52 28,-52"/>
<text text-anchor="middle" x="295.5" y="-981.2" font-family="Times,serif" font-size="11.00" fill="gray">acdhOeaw</text>
</g>
<g id="clust3" class="cluster"><title>cluster_\acdhOeaw\oai</title>
<path fill="none" stroke="gray" d="M36,-60C36,-60 555,-60 555,-60 561,-60 567,-66 567,-72 567,-72 567,-954 567,-954 567,-960 561,-966 555,-966 555,-966 36,-966 36,-966 30,-966 24,-960 24,-954 24,-954 24,-72 24,-72 24,-66 30,-60 36,-60"/>
<text text-anchor="middle" x="295.5" y="-953.2" font-family="Times,serif" font-size="11.00" fill="gray">oai</text>
</g>
<g id="clust4" class="cluster"><title>cluster_\acdhOeaw\oai\metadata</title>
<path fill="none" stroke="gray" d="M44,-812C44,-812 540.5,-812 540.5,-812 546.5,-812 552.5,-818 552.5,-824 552.5,-824 552.5,-926 552.5,-926 552.5,-932 546.5,-938 540.5,-938 540.5,-938 44,-938 44,-938 38,-938 32,-932 32,-926 32,-926 32,-824 32,-824 32,-818 38,-812 44,-812"/>
<text text-anchor="middle" x="292.25" y="-925.2" font-family="Times,serif" font-size="11.00" fill="gray">metadata</text>
</g>
<g id="clust5" class="cluster"><title>cluster_\acdhOeaw\oai\data</title>
<path fill="none" stroke="gray" d="M444,-570C444,-570 547,-570 547,-570 553,-570 559,-576 559,-582 559,-582 559,-792 559,-792 559,-798 553,-804 547,-804 547,-804 444,-804 444,-804 438,-804 432,-798 432,-792 432,-792 432,-582 432,-582 432,-576 438,-570 444,-570"/>
<text text-anchor="middle" x="495.5" y="-791.2" font-family="Times,serif" font-size="11.00" fill="gray">data</text>
</g>
<g id="clust6" class="cluster"><title>cluster_\acdhOeaw\oai\search</title>
<path fill="none" stroke="gray" d="M250.5,-490C250.5,-490 533.5,-490 533.5,-490 539.5,-490 545.5,-496 545.5,-502 545.5,-502 545.5,-550 545.5,-550 545.5,-556 539.5,-562 533.5,-562 533.5,-562 250.5,-562 250.5,-562 244.5,-562 238.5,-556 238.5,-550 238.5,-550 238.5,-502 238.5,-502 238.5,-496 244.5,-490 250.5,-490"/>
<text text-anchor="middle" x="392" y="-549.2" font-family="Times,serif" font-size="11.00" fill="gray">search</text>
</g>
<g id="clust7" class="cluster"><title>cluster_\acdhOeaw\oai\set</title>
<path fill="none" stroke="gray" d="M260.5,-302C260.5,-302 523.5,-302 523.5,-302 529.5,-302 535.5,-308 535.5,-314 535.5,-314 535.5,-470 535.5,-470 535.5,-476 529.5,-482 523.5,-482 523.5,-482 260.5,-482 260.5,-482 254.5,-482 248.5,-476 248.5,-470 248.5,-470 248.5,-314 248.5,-314 248.5,-308 254.5,-302 260.5,-302"/>
<text text-anchor="middle" x="392" y="-469.2" font-family="Times,serif" font-size="11.00" fill="gray">set</text>
</g>
<g id="clust8" class="cluster"><title>cluster_\acdhOeaw\oai\deleted</title>
<path fill="none" stroke="gray" d="M247,-168C247,-168 537,-168 537,-168 543,-168 549,-174 549,-180 549,-180 549,-282 549,-282 549,-288 543,-294 537,-294 537,-294 247,-294 247,-294 241,-294 235,-288 235,-282 235,-282 235,-180 235,-180 235,-174 241,-168 247,-168"/>
<text text-anchor="middle" x="392" y="-281.2" font-family="Times,serif" font-size="11.00" fill="gray">deleted</text>
</g>
<!-- \\acdhOeaw\\oai\\metadata\\DcMetadata -->
<g id="node1" class="node"><title>\\acdhOeaw\\oai\\metadata\\DcMetadata</title>
<polygon fill="none" stroke="black" points="347.5,-910 263.5,-910 263.5,-874 347.5,-874 347.5,-910"/>
<text text-anchor="middle" x="305.5" y="-889.2" font-family="Courier,monospace" font-size="11.00">DcMetadata</text>
</g>
<!-- \\acdhOeaw\\oai\\metadata\\MetadataInterface -->
<g id="node4" class="node"><title>\\acdhOeaw\\oai\\metadata\\MetadataInterface</title>
<polygon fill="none" stroke="black" points="171,-883 40,-883 40,-847 171,-847 171,-883"/>
<text text-anchor="middle" x="105.5" y="-862.2" font-family="Courier,monospace" font-size="11.00">MetadataInterface</text>
</g>
<!-- \\acdhOeaw\\oai\\metadata\\DcMetadata&#45;&gt;\\acdhOeaw\\oai\\metadata\\MetadataInterface -->
<g id="edge1" class="edge"><title>\\acdhOeaw\\oai\\metadata\\DcMetadata&#45;&gt;\\acdhOeaw\\oai\\metadata\\MetadataInterface</title>
<path fill="none" stroke="black" stroke-dasharray="1,5" d="M263.474,-886.406C239.767,-883.173 209.211,-879.006 181.367,-875.209"/>
<polygon fill="none" stroke="black" points="181.63,-871.713 171.249,-873.829 180.684,-878.649 181.63,-871.713"/>
</g>
<!-- \\acdhOeaw\\oai\\metadata\\ResMetadata -->
<g id="node2" class="node"><title>\\acdhOeaw\\oai\\metadata\\ResMetadata</title>
<polygon fill="none" stroke="black" points="351,-856 260,-856 260,-820 351,-820 351,-856"/>
<text text-anchor="middle" x="305.5" y="-835.2" font-family="Courier,monospace" font-size="11.00">ResMetadata</text>
</g>
<!-- \\acdhOeaw\\oai\\metadata\\ResMetadata&#45;&gt;\\acdhOeaw\\oai\\metadata\\MetadataInterface -->
<g id="edge2" class="edge"><title>\\acdhOeaw\\oai\\metadata\\ResMetadata&#45;&gt;\\acdhOeaw\\oai\\metadata\\MetadataInterface</title>
<path fill="none" stroke="black" stroke-dasharray="1,5" d="M259.571,-844.127C236.402,-847.286 207.534,-851.223 181.132,-854.823"/>
<polygon fill="none" stroke="black" points="180.586,-851.365 171.151,-856.184 181.532,-858.301 180.586,-851.365"/>
</g>
<!-- \\acdhOeaw\\oai\\metadata\\CmdiMetadata -->
<g id="node3" class="node"><title>\\acdhOeaw\\oai\\metadata\\CmdiMetadata</title>
<polygon fill="none" stroke="black" points="544.5,-856 446.5,-856 446.5,-820 544.5,-820 544.5,-856"/>
<text text-anchor="middle" x="495.5" y="-835.2" font-family="Courier,monospace" font-size="11.00">CmdiMetadata</text>
</g>
<!-- \\acdhOeaw\\oai\\metadata\\CmdiMetadata&#45;&gt;\\acdhOeaw\\oai\\metadata\\ResMetadata -->
<g id="edge7" class="edge"><title>\\acdhOeaw\\oai\\metadata\\CmdiMetadata&#45;&gt;\\acdhOeaw\\oai\\metadata\\ResMetadata</title>
<path fill="none" stroke="black" d="M446.085,-838C420.135,-838 388.068,-838 361.216,-838"/>
<polygon fill="none" stroke="black" points="361.204,-834.5 351.204,-838 361.204,-841.5 361.204,-834.5"/>
</g>
<!-- \\acdhOeaw\\oai\\data\\HeaderData -->
<g id="node5" class="node"><title>\\acdhOeaw\\oai\\data\\HeaderData</title>
<polygon fill="none" stroke="black" points="537.5,-776 453.5,-776 453.5,-740 537.5,-740 537.5,-776"/>
<text text-anchor="middle" x="495.5" y="-755.2" font-family="Courier,monospace" font-size="11.00">HeaderData</text>
</g>
<!-- \\acdhOeaw\\oai\\data\\RepositoryInfo -->
<g id="node6" class="node"><title>\\acdhOeaw\\oai\\data\\RepositoryInfo</title>
<polygon fill="none" stroke="black" points="551,-722 440,-722 440,-686 551,-686 551,-722"/>
<text text-anchor="middle" x="495.5" y="-701.2" font-family="Courier,monospace" font-size="11.00">RepositoryInfo</text>
</g>
<!-- \\acdhOeaw\\oai\\data\\SetInfo -->
<g id="node7" class="node"><title>\\acdhOeaw\\oai\\data\\SetInfo</title>
<polygon fill="none" stroke="black" points="527.5,-668 463.5,-668 463.5,-632 527.5,-632 527.5,-668"/>
<text text-anchor="middle" x="495.5" y="-647.2" font-family="Courier,monospace" font-size="11.00">SetInfo</text>
</g>
<!-- \\acdhOeaw\\oai\\data\\MetadataFormat -->
<g id="node8" class="node"><title>\\acdhOeaw\\oai\\data\\MetadataFormat</title>
<polygon fill="none" stroke="black" points="551,-614 440,-614 440,-578 551,-578 551,-614"/>
<text text-anchor="middle" x="495.5" y="-593.2" font-family="Courier,monospace" font-size="11.00">MetadataFormat</text>
</g>
<!-- \\acdhOeaw\\oai\\search\\BaseSearch -->
<g id="node9" class="node"><title>\\acdhOeaw\\oai\\search\\BaseSearch</title>
<polygon fill="none" stroke="black" points="537.5,-534 453.5,-534 453.5,-498 537.5,-498 537.5,-534"/>
<text text-anchor="middle" x="495.5" y="-513.2" font-family="Courier,monospace" font-size="11.00">BaseSearch</text>
</g>
<!-- \\acdhOeaw\\oai\\search\\SearchInterface -->
<g id="node10" class="node"><title>\\acdhOeaw\\oai\\search\\SearchInterface</title>
<polygon fill="none" stroke="black" points="364.5,-534 246.5,-534 246.5,-498 364.5,-498 364.5,-534"/>
<text text-anchor="middle" x="305.5" y="-513.2" font-family="Courier,monospace" font-size="11.00">SearchInterface</text>
</g>
<!-- \\acdhOeaw\\oai\\search\\BaseSearch&#45;&gt;\\acdhOeaw\\oai\\search\\SearchInterface -->
<g id="edge3" class="edge"><title>\\acdhOeaw\\oai\\search\\BaseSearch&#45;&gt;\\acdhOeaw\\oai\\search\\SearchInterface</title>
<path fill="none" stroke="black" stroke-dasharray="1,5" d="M453.243,-516C430.342,-516 401.265,-516 375.046,-516"/>
<polygon fill="none" stroke="black" points="374.777,-512.5 364.777,-516 374.777,-519.5 374.777,-512.5"/>
</g>
<!-- \\acdhOeaw\\oai\\set\\Complex -->
<g id="node11" class="node"><title>\\acdhOeaw\\oai\\set\\Complex</title>
<polygon fill="none" stroke="black" points="527.5,-454 463.5,-454 463.5,-418 527.5,-418 527.5,-454"/>
<text text-anchor="middle" x="495.5" y="-433.2" font-family="Courier,monospace" font-size="11.00">Complex</text>
</g>
<!-- \\acdhOeaw\\oai\\set\\SetInterface -->
<g id="node13" class="node"><title>\\acdhOeaw\\oai\\set\\SetInterface</title>
<polygon fill="none" stroke="black" points="354.5,-400 256.5,-400 256.5,-364 354.5,-364 354.5,-400"/>
<text text-anchor="start" x="271.5" y="-385.2" font-family="Courier,monospace" font-size="11.00">«abstract»</text>
<text text-anchor="start" x="264.5" y="-373.2" font-family="Courier,monospace" font-size="11.00">SetInterface</text>
</g>
<!-- \\acdhOeaw\\oai\\set\\Complex&#45;&gt;\\acdhOeaw\\oai\\set\\SetInterface -->
<g id="edge5" class="edge"><title>\\acdhOeaw\\oai\\set\\Complex&#45;&gt;\\acdhOeaw\\oai\\set\\SetInterface</title>
<path fill="none" stroke="black" d="M463.456,-427.083C436.614,-419.373 397.096,-408.022 364.43,-398.639"/>
<polygon fill="none" stroke="black" points="365.111,-395.194 354.533,-395.797 363.178,-401.922 365.111,-395.194"/>
</g>
<!-- \\acdhOeaw\\oai\\set\\NoSets -->
<g id="node12" class="node"><title>\\acdhOeaw\\oai\\set\\NoSets</title>
<polygon fill="none" stroke="black" points="524,-400 467,-400 467,-364 524,-364 524,-400"/>
<text text-anchor="middle" x="495.5" y="-379.2" font-family="Courier,monospace" font-size="11.00">NoSets</text>
</g>
<!-- \\acdhOeaw\\oai\\set\\NoSets&#45;&gt;\\acdhOeaw\\oai\\set\\SetInterface -->
<g id="edge6" class="edge"><title>\\acdhOeaw\\oai\\set\\NoSets&#45;&gt;\\acdhOeaw\\oai\\set\\SetInterface</title>
<path fill="none" stroke="black" d="M466.76,-382C440.102,-382 398.977,-382 365.062,-382"/>
<polygon fill="none" stroke="black" points="364.793,-378.5 354.793,-382 364.793,-385.5 364.793,-378.5"/>
</g>
<!-- \\acdhOeaw\\oai\\set\\Simple -->
<g id="node14" class="node"><title>\\acdhOeaw\\oai\\set\\Simple</title>
<polygon fill="none" stroke="black" points="524,-346 467,-346 467,-310 524,-310 524,-346"/>
<text text-anchor="middle" x="495.5" y="-325.2" font-family="Courier,monospace" font-size="11.00">Simple</text>
</g>
<!-- \\acdhOeaw\\oai\\set\\Simple&#45;&gt;\\acdhOeaw\\oai\\set\\SetInterface -->
<g id="edge8" class="edge"><title>\\acdhOeaw\\oai\\set\\Simple&#45;&gt;\\acdhOeaw\\oai\\set\\SetInterface</title>
<path fill="none" stroke="black" d="M466.76,-335.968C439.987,-343.658 398.622,-355.539 364.624,-365.305"/>
<polygon fill="none" stroke="black" points="363.438,-362.004 354.793,-368.129 365.37,-368.732 363.438,-362.004"/>
</g>
<!-- \\acdhOeaw\\oai\\deleted\\RdfProperty -->
<g id="node15" class="node"><title>\\acdhOeaw\\oai\\deleted\\RdfProperty</title>
<polygon fill="none" stroke="black" points="541,-266 450,-266 450,-230 541,-230 541,-266"/>
<text text-anchor="middle" x="495.5" y="-245.2" font-family="Courier,monospace" font-size="11.00">RdfProperty</text>
</g>
<!-- \\acdhOeaw\\oai\\deleted\\DeletedInterface -->
<g id="node16" class="node"><title>\\acdhOeaw\\oai\\deleted\\DeletedInterface</title>
<polygon fill="none" stroke="black" points="368,-239 243,-239 243,-203 368,-203 368,-239"/>
<text text-anchor="start" x="271.5" y="-224.2" font-family="Courier,monospace" font-size="11.00">«abstract»</text>
<text text-anchor="start" x="251" y="-212.2" font-family="Courier,monospace" font-size="11.00">DeletedInterface</text>
</g>
<!-- \\acdhOeaw\\oai\\deleted\\RdfProperty&#45;&gt;\\acdhOeaw\\oai\\deleted\\DeletedInterface -->
<g id="edge9" class="edge"><title>\\acdhOeaw\\oai\\deleted\\RdfProperty&#45;&gt;\\acdhOeaw\\oai\\deleted\\DeletedInterface</title>
<path fill="none" stroke="black" d="M449.947,-241.601C428.569,-238.531 402.423,-234.776 378.335,-231.317"/>
<polygon fill="none" stroke="black" points="378.554,-227.812 368.158,-229.855 377.559,-234.741 378.554,-227.812"/>
</g>
<!-- \\acdhOeaw\\oai\\deleted\\No -->
<g id="node17" class="node"><title>\\acdhOeaw\\oai\\deleted\\No</title>
<polygon fill="none" stroke="black" points="522.5,-212 468.5,-212 468.5,-176 522.5,-176 522.5,-212"/>
<text text-anchor="middle" x="495.5" y="-191.2" font-family="Courier,monospace" font-size="11.00">No</text>
</g>
<!-- \\acdhOeaw\\oai\\deleted\\No&#45;&gt;\\acdhOeaw\\oai\\deleted\\DeletedInterface -->
<g id="edge10" class="edge"><title>\\acdhOeaw\\oai\\deleted\\No&#45;&gt;\\acdhOeaw\\oai\\deleted\\DeletedInterface</title>
<path fill="none" stroke="black" d="M468.359,-197.754C445.053,-201.101 409.83,-206.16 378.187,-210.705"/>
<polygon fill="none" stroke="black" points="377.459,-207.273 368.058,-212.159 378.454,-214.202 377.459,-207.273"/>
</g>
<!-- \\acdhOeaw\\oai\\Oai -->
<g id="node18" class="node"><title>\\acdhOeaw\\oai\\Oai</title>
<polygon fill="none" stroke="black" points="522.5,-158 468.5,-158 468.5,-122 522.5,-122 522.5,-158"/>
<text text-anchor="middle" x="495.5" y="-137.2" font-family="Courier,monospace" font-size="11.00">Oai</text>
</g>
<!-- \\acdhOeaw\\oai\\OaiException -->
<g id="node19" class="node"><title>\\acdhOeaw\\oai\\OaiException</title>
<polygon fill="none" stroke="black" points="544.5,-104 446.5,-104 446.5,-68 544.5,-68 544.5,-104"/>
<text text-anchor="middle" x="495.5" y="-83.2" font-family="Courier,monospace" font-size="11.00">OaiException</text>
</g>
<!-- \\Exception -->
<g id="node20" class="node"><title>\\Exception</title>
<ellipse fill="none" stroke="black" cx="305.5" cy="-18" rx="48.9926" ry="18"/>
<text text-anchor="middle" x="305.5" y="-14.3" font-family="Times,serif" font-size="14.00" fill="gray">\Exception</text>
</g>
<!-- \\acdhOeaw\\oai\\OaiException&#45;&gt;\\Exception -->
<g id="edge4" class="edge"><title>\\acdhOeaw\\oai\\OaiException&#45;&gt;\\Exception</title>
<path fill="none" stroke="black" d="M446.085,-68.4883C416.597,-57.8224 379.212,-44.3001 350.555,-33.9347"/>
<polygon fill="none" stroke="black" points="351.404,-30.5199 340.81,-30.4098 349.023,-37.1026 351.404,-30.5199"/>
</g>
</g>
</svg>
