<?xml version="1.0" encoding="UTF-8" standalone="no"?>
<!DOCTYPE svg PUBLIC "-//W3C//DTD SVG 1.1//EN"
 "http://www.w3.org/Graphics/SVG/1.1/DTD/svg11.dtd">
<!-- Generated by graphviz version 2.40.1 (20161225.0304)
 -->
<!-- Title: G Pages: 1 -->
<svg width="599pt" height="1254pt"
 viewBox="0.00 0.00 599.00 1254.00" xmlns="http://www.w3.org/2000/svg" xmlns:xlink="http://www.w3.org/1999/xlink">
<g id="graph0" class="graph" transform="scale(1 1) rotate(0) translate(4 1250)">
<title>G</title>
<polygon fill="#ffffff" stroke="transparent" points="-4,4 -4,-1250 595,-1250 595,4 -4,4"/>
<g id="clust1" class="cluster">
<title>cluster_Global</title>
<path fill="none" stroke="#c0c0c0" d="M20,-44C20,-44 571,-44 571,-44 577,-44 583,-50 583,-56 583,-56 583,-1226 583,-1226 583,-1232 577,-1238 571,-1238 571,-1238 20,-1238 20,-1238 14,-1238 8,-1232 8,-1226 8,-1226 8,-56 8,-56 8,-50 14,-44 20,-44"/>
<text text-anchor="middle" x="295.5" y="-1225.2" font-family="Times,serif" font-size="11.00" fill="#c0c0c0">Global</text>
</g>
<g id="clust2" class="cluster">
<title>cluster_\acdhOeaw</title>
<path fill="none" stroke="#c0c0c0" d="M28,-52C28,-52 563,-52 563,-52 569,-52 575,-58 575,-64 575,-64 575,-1198 575,-1198 575,-1204 569,-1210 563,-1210 563,-1210 28,-1210 28,-1210 22,-1210 16,-1204 16,-1198 16,-1198 16,-64 16,-64 16,-58 22,-52 28,-52"/>
<text text-anchor="middle" x="295.5" y="-1197.2" font-family="Times,serif" font-size="11.00" fill="#c0c0c0">acdhOeaw</text>
</g>
<g id="clust3" class="cluster">
<title>cluster_\acdhOeaw\oai</title>
<path fill="none" stroke="#c0c0c0" d="M36,-60C36,-60 555,-60 555,-60 561,-60 567,-66 567,-72 567,-72 567,-1170 567,-1170 567,-1176 561,-1182 555,-1182 555,-1182 36,-1182 36,-1182 30,-1182 24,-1176 24,-1170 24,-1170 24,-72 24,-72 24,-66 30,-60 36,-60"/>
<text text-anchor="middle" x="295.5" y="-1169.2" font-family="Times,serif" font-size="11.00" fill="#c0c0c0">oai</text>
</g>
<g id="clust4" class="cluster">
<title>cluster_\acdhOeaw\oai\metadata</title>
<path fill="none" stroke="#c0c0c0" d="M44,-866C44,-866 540.5,-866 540.5,-866 546.5,-866 552.5,-872 552.5,-878 552.5,-878 552.5,-1142 552.5,-1142 552.5,-1148 546.5,-1154 540.5,-1154 540.5,-1154 44,-1154 44,-1154 38,-1154 32,-1148 32,-1142 32,-1142 32,-878 32,-878 32,-872 38,-866 44,-866"/>
<text text-anchor="middle" x="292.25" y="-1141.2" font-family="Times,serif" font-size="11.00" fill="#c0c0c0">metadata</text>
</g>
<g id="clust5" class="cluster">
<title>cluster_\acdhOeaw\oai\data</title>
<path fill="none" stroke="#c0c0c0" d="M444,-624C444,-624 547,-624 547,-624 553,-624 559,-630 559,-636 559,-636 559,-846 559,-846 559,-852 553,-858 547,-858 547,-858 444,-858 444,-858 438,-858 432,-852 432,-846 432,-846 432,-636 432,-636 432,-630 438,-624 444,-624"/>
<text text-anchor="middle" x="495.5" y="-845.2" font-family="Times,serif" font-size="11.00" fill="#c0c0c0">data</text>
</g>
<g id="clust6" class="cluster">
<title>cluster_\acdhOeaw\oai\deleted</title>
<path fill="none" stroke="#c0c0c0" d="M247,-490C247,-490 537,-490 537,-490 543,-490 549,-496 549,-502 549,-502 549,-604 549,-604 549,-610 543,-616 537,-616 537,-616 247,-616 247,-616 241,-616 235,-610 235,-604 235,-604 235,-502 235,-502 235,-496 241,-490 247,-490"/>
<text text-anchor="middle" x="392" y="-603.2" font-family="Times,serif" font-size="11.00" fill="#c0c0c0">deleted</text>
</g>
<g id="clust7" class="cluster">
<title>cluster_\acdhOeaw\oai\search</title>
<path fill="none" stroke="#c0c0c0" d="M250.5,-410C250.5,-410 533.5,-410 533.5,-410 539.5,-410 545.5,-416 545.5,-422 545.5,-422 545.5,-470 545.5,-470 545.5,-476 539.5,-482 533.5,-482 533.5,-482 250.5,-482 250.5,-482 244.5,-482 238.5,-476 238.5,-470 238.5,-470 238.5,-422 238.5,-422 238.5,-416 244.5,-410 250.5,-410"/>
<text text-anchor="middle" x="392" y="-469.2" font-family="Times,serif" font-size="11.00" fill="#c0c0c0">search</text>
</g>
<g id="clust8" class="cluster">
<title>cluster_\acdhOeaw\oai\set</title>
<path fill="none" stroke="#c0c0c0" d="M260.5,-168C260.5,-168 523.5,-168 523.5,-168 529.5,-168 535.5,-174 535.5,-180 535.5,-180 535.5,-390 535.5,-390 535.5,-396 529.5,-402 523.5,-402 523.5,-402 260.5,-402 260.5,-402 254.5,-402 248.5,-396 248.5,-390 248.5,-390 248.5,-180 248.5,-180 248.5,-174 254.5,-168 260.5,-168"/>
<text text-anchor="middle" x="392" y="-389.2" font-family="Times,serif" font-size="11.00" fill="#c0c0c0">set</text>
</g>
<!-- \\acdhOeaw\\oai\\metadata\\LiveCmdiMetadata -->
<g id="node1" class="node">
<title>\\acdhOeaw\\oai\\metadata\\LiveCmdiMetadata</title>
<polygon fill="none" stroke="#000000" points="368,-1126 243,-1126 243,-1090 368,-1090 368,-1126"/>
<text text-anchor="middle" x="305.5" y="-1105.2" font-family="Courier,monospace" font-size="11.00" fill="#000000">LiveCmdiMetadata</text>
</g>
<!-- \\acdhOeaw\\oai\\metadata\\MetadataInterface -->
<g id="node7" class="node">
<title>\\acdhOeaw\\oai\\metadata\\MetadataInterface</title>
<polygon fill="none" stroke="#000000" points="171,-1018 40,-1018 40,-982 171,-982 171,-1018"/>
<text text-anchor="middle" x="105.5" y="-997.2" font-family="Courier,monospace" font-size="11.00" fill="#000000">MetadataInterface</text>
</g>
<!-- \\acdhOeaw\\oai\\metadata\\LiveCmdiMetadata&#45;&gt;\\acdhOeaw\\oai\\metadata\\MetadataInterface -->
<g id="edge1" class="edge">
<title>\\acdhOeaw\\oai\\metadata\\LiveCmdiMetadata&#45;&gt;\\acdhOeaw\\oai\\metadata\\MetadataInterface</title>
<path fill="none" stroke="#000000" stroke-dasharray="1,5" d="M254.9191,-1089.9939C248.1334,-1087.1834 241.3344,-1084.1569 235,-1081 201.4551,-1064.2821 165.4775,-1041.3345 139.9781,-1024.1317"/>
<polygon fill="none" stroke="#000000" points="141.6533,-1021.0382 131.4168,-1018.3061 137.7153,-1026.8254 141.6533,-1021.0382"/>
</g>
<!-- \\acdhOeaw\\oai\\metadata\\DcMetadata -->
<g id="node2" class="node">
<title>\\acdhOeaw\\oai\\metadata\\DcMetadata</title>
<polygon fill="none" stroke="#000000" points="347.5,-1072 263.5,-1072 263.5,-1036 347.5,-1036 347.5,-1072"/>
<text text-anchor="middle" x="305.5" y="-1051.2" font-family="Courier,monospace" font-size="11.00" fill="#000000">DcMetadata</text>
</g>
<!-- \\acdhOeaw\\oai\\metadata\\DcMetadata&#45;&gt;\\acdhOeaw\\oai\\metadata\\MetadataInterface -->
<g id="edge2" class="edge">
<title>\\acdhOeaw\\oai\\metadata\\DcMetadata&#45;&gt;\\acdhOeaw\\oai\\metadata\\MetadataInterface</title>
<path fill="none" stroke="#000000" stroke-dasharray="1,5" d="M263.0851,-1042.548C239.1861,-1036.0953 208.6305,-1027.8452 180.7983,-1020.3305"/>
<polygon fill="none" stroke="#000000" points="181.6493,-1016.9351 171.0827,-1017.7073 179.8246,-1023.6931 181.6493,-1016.9351"/>
</g>
<!-- \\acdhOeaw\\oai\\metadata\\ResMetadata -->
<g id="node3" class="node">
<title>\\acdhOeaw\\oai\\metadata\\ResMetadata</title>
<polygon fill="none" stroke="#000000" points="351,-964 260,-964 260,-928 351,-928 351,-964"/>
<text text-anchor="middle" x="305.5" y="-943.2" font-family="Courier,monospace" font-size="11.00" fill="#000000">ResMetadata</text>
</g>
<!-- \\acdhOeaw\\oai\\metadata\\ResMetadata&#45;&gt;\\acdhOeaw\\oai\\metadata\\MetadataInterface -->
<g id="edge3" class="edge">
<title>\\acdhOeaw\\oai\\metadata\\ResMetadata&#45;&gt;\\acdhOeaw\\oai\\metadata\\MetadataInterface</title>
<path fill="none" stroke="#000000" stroke-dasharray="1,5" d="M259.8667,-958.321C236.4558,-964.6419 207.3333,-972.505 180.7123,-979.6927"/>
<polygon fill="none" stroke="#000000" points="179.7748,-976.3204 171.0329,-982.3061 181.5996,-983.0784 179.7748,-976.3204"/>
</g>
<!-- \\acdhOeaw\\oai\\metadata\\AcdhDcMetadata -->
<g id="node4" class="node">
<title>\\acdhOeaw\\oai\\metadata\\AcdhDcMetadata</title>
<polygon fill="none" stroke="#000000" points="361,-1018 250,-1018 250,-982 361,-982 361,-1018"/>
<text text-anchor="middle" x="305.5" y="-997.2" font-family="Courier,monospace" font-size="11.00" fill="#000000">AcdhDcMetadata</text>
</g>
<!-- \\acdhOeaw\\oai\\metadata\\AcdhDcMetadata&#45;&gt;\\acdhOeaw\\oai\\metadata\\MetadataInterface -->
<g id="edge5" class="edge">
<title>\\acdhOeaw\\oai\\metadata\\AcdhDcMetadata&#45;&gt;\\acdhOeaw\\oai\\metadata\\MetadataInterface</title>
<path fill="none" stroke="#000000" stroke-dasharray="1,5" d="M249.7888,-1000C228.6399,-1000 204.179,-1000 181.4744,-1000"/>
<polygon fill="none" stroke="#000000" points="181.1844,-996.5001 171.1844,-1000 181.1844,-1003.5001 181.1844,-996.5001"/>
</g>
<!-- \\acdhOeaw\\oai\\metadata\\CmdiMetadata -->
<g id="node5" class="node">
<title>\\acdhOeaw\\oai\\metadata\\CmdiMetadata</title>
<polygon fill="none" stroke="#000000" points="544.5,-964 446.5,-964 446.5,-928 544.5,-928 544.5,-964"/>
<text text-anchor="middle" x="495.5" y="-943.2" font-family="Courier,monospace" font-size="11.00" fill="#000000">CmdiMetadata</text>
</g>
<!-- \\acdhOeaw\\oai\\metadata\\CmdiMetadata&#45;&gt;\\acdhOeaw\\oai\\metadata\\ResMetadata -->
<g id="edge11" class="edge">
<title>\\acdhOeaw\\oai\\metadata\\CmdiMetadata&#45;&gt;\\acdhOeaw\\oai\\metadata\\ResMetadata</title>
<path fill="none" stroke="#000000" d="M446.0757,-946C420.0438,-946 388.0284,-946 361.1294,-946"/>
<polygon fill="none" stroke="#000000" points="361.0938,-942.5001 351.0937,-946 361.0937,-949.5001 361.0938,-942.5001"/>
</g>
<!-- \\acdhOeaw\\oai\\metadata\\RdfXml -->
<g id="node6" class="node">
<title>\\acdhOeaw\\oai\\metadata\\RdfXml</title>
<polygon fill="none" stroke="#000000" points="334,-910 277,-910 277,-874 334,-874 334,-910"/>
<text text-anchor="middle" x="305.5" y="-889.2" font-family="Courier,monospace" font-size="11.00" fill="#000000">RdfXml</text>
</g>
<!-- \\acdhOeaw\\oai\\metadata\\RdfXml&#45;&gt;\\acdhOeaw\\oai\\metadata\\MetadataInterface -->
<g id="edge12" class="edge">
<title>\\acdhOeaw\\oai\\metadata\\RdfXml&#45;&gt;\\acdhOeaw\\oai\\metadata\\MetadataInterface</title>
<path fill="none" stroke="#000000" stroke-dasharray="1,5" d="M276.8333,-901.5543C263.8157,-906.2523 248.3727,-912.3354 235,-919 201.4551,-935.7179 165.4775,-958.6655 139.9781,-975.8683"/>
<polygon fill="none" stroke="#000000" points="137.7153,-973.1746 131.4168,-981.6939 141.6533,-978.9618 137.7153,-973.1746"/>
</g>
<!-- \\acdhOeaw\\oai\\data\\HeaderData -->
<g id="node8" class="node">
<title>\\acdhOeaw\\oai\\data\\HeaderData</title>
<polygon fill="none" stroke="#000000" points="537.5,-830 453.5,-830 453.5,-794 537.5,-794 537.5,-830"/>
<text text-anchor="middle" x="495.5" y="-809.2" font-family="Courier,monospace" font-size="11.00" fill="#000000">HeaderData</text>
</g>
<!-- \\acdhOeaw\\oai\\data\\RepositoryInfo -->
<g id="node9" class="node">
<title>\\acdhOeaw\\oai\\data\\RepositoryInfo</title>
<polygon fill="none" stroke="#000000" points="551,-776 440,-776 440,-740 551,-740 551,-776"/>
<text text-anchor="middle" x="495.5" y="-755.2" font-family="Courier,monospace" font-size="11.00" fill="#000000">RepositoryInfo</text>
</g>
<!-- \\acdhOeaw\\oai\\data\\SetInfo -->
<g id="node10" class="node">
<title>\\acdhOeaw\\oai\\data\\SetInfo</title>
<polygon fill="none" stroke="#000000" points="527.5,-722 463.5,-722 463.5,-686 527.5,-686 527.5,-722"/>
<text text-anchor="middle" x="495.5" y="-701.2" font-family="Courier,monospace" font-size="11.00" fill="#000000">SetInfo</text>
</g>
<!-- \\acdhOeaw\\oai\\data\\MetadataFormat -->
<g id="node11" class="node">
<title>\\acdhOeaw\\oai\\data\\MetadataFormat</title>
<polygon fill="none" stroke="#000000" points="551,-668 440,-668 440,-632 551,-632 551,-668"/>
<text text-anchor="middle" x="495.5" y="-647.2" font-family="Courier,monospace" font-size="11.00" fill="#000000">MetadataFormat</text>
</g>
<!-- \\acdhOeaw\\oai\\deleted\\DeletedInterface -->
<g id="node12" class="node">
<title>\\acdhOeaw\\oai\\deleted\\DeletedInterface</title>
<polygon fill="none" stroke="#000000" points="368,-561 243,-561 243,-525 368,-525 368,-561"/>
<text text-anchor="start" x="271.5" y="-546.2" font-family="Courier,monospace" font-size="11.00" fill="#000000">«abstract»</text>
<text text-anchor="start" x="251" y="-534.2" font-family="Courier,monospace" font-size="11.00" fill="#000000">DeletedInterface</text>
</g>
<!-- \\acdhOeaw\\oai\\deleted\\No -->
<g id="node13" class="node">
<title>\\acdhOeaw\\oai\\deleted\\No</title>
<polygon fill="none" stroke="#000000" points="522.5,-588 468.5,-588 468.5,-552 522.5,-552 522.5,-588"/>
<text text-anchor="middle" x="495.5" y="-567.2" font-family="Courier,monospace" font-size="11.00" fill="#000000">No</text>
</g>
<!-- \\acdhOeaw\\oai\\deleted\\No&#45;&gt;\\acdhOeaw\\oai\\deleted\\DeletedInterface -->
<g id="edge7" class="edge">
<title>\\acdhOeaw\\oai\\deleted\\No&#45;&gt;\\acdhOeaw\\oai\\deleted\\DeletedInterface</title>
<path fill="none" stroke="#000000" d="M468.2776,-566.1316C444.8523,-562.8027 409.9547,-557.8436 378.4726,-553.3698"/>
<polygon fill="none" stroke="#000000" points="378.783,-549.8788 368.39,-551.937 377.7981,-556.8092 378.783,-549.8788"/>
</g>
<!-- \\acdhOeaw\\oai\\deleted\\RdfProperty -->
<g id="node14" class="node">
<title>\\acdhOeaw\\oai\\deleted\\RdfProperty</title>
<polygon fill="none" stroke="#000000" points="541,-534 450,-534 450,-498 541,-498 541,-534"/>
<text text-anchor="middle" x="495.5" y="-513.2" font-family="Courier,monospace" font-size="11.00" fill="#000000">RdfProperty</text>
</g>
<!-- \\acdhOeaw\\oai\\deleted\\RdfProperty&#45;&gt;\\acdhOeaw\\oai\\deleted\\DeletedInterface -->
<g id="edge10" class="edge">
<title>\\acdhOeaw\\oai\\deleted\\RdfProperty&#45;&gt;\\acdhOeaw\\oai\\deleted\\DeletedInterface</title>
<path fill="none" stroke="#000000" d="M449.9903,-522.4672C428.5685,-525.5113 402.4888,-529.2174 378.4128,-532.6387"/>
<polygon fill="none" stroke="#000000" points="377.6447,-529.2126 368.2366,-534.0848 378.6296,-536.143 377.6447,-529.2126"/>
</g>
<!-- \\acdhOeaw\\oai\\search\\BaseSearch -->
<g id="node15" class="node">
<title>\\acdhOeaw\\oai\\search\\BaseSearch</title>
<polygon fill="none" stroke="#000000" points="537.5,-454 453.5,-454 453.5,-418 537.5,-418 537.5,-454"/>
<text text-anchor="middle" x="495.5" y="-433.2" font-family="Courier,monospace" font-size="11.00" fill="#000000">BaseSearch</text>
</g>
<!-- \\acdhOeaw\\oai\\search\\SearchInterface -->
<g id="node16" class="node">
<title>\\acdhOeaw\\oai\\search\\SearchInterface</title>
<polygon fill="none" stroke="#000000" points="364.5,-454 246.5,-454 246.5,-418 364.5,-418 364.5,-454"/>
<text text-anchor="middle" x="305.5" y="-433.2" font-family="Courier,monospace" font-size="11.00" fill="#000000">SearchInterface</text>
</g>
<!-- \\acdhOeaw\\oai\\search\\BaseSearch&#45;&gt;\\acdhOeaw\\oai\\search\\SearchInterface -->
<g id="edge4" class="edge">
<title>\\acdhOeaw\\oai\\search\\BaseSearch&#45;&gt;\\acdhOeaw\\oai\\search\\SearchInterface</title>
<path fill="none" stroke="#000000" stroke-dasharray="1,5" d="M453.3328,-436C430.3622,-436 401.3489,-436 375.1207,-436"/>
<polygon fill="none" stroke="#000000" points="374.8438,-432.5001 364.8438,-436 374.8437,-439.5001 374.8438,-432.5001"/>
</g>
<!-- \\acdhOeaw\\oai\\set\\Acdh -->
<g id="node17" class="node">
<title>\\acdhOeaw\\oai\\set\\Acdh</title>
<polygon fill="none" stroke="#000000" points="522.5,-374 468.5,-374 468.5,-338 522.5,-338 522.5,-374"/>
<text text-anchor="middle" x="495.5" y="-353.2" font-family="Courier,monospace" font-size="11.00" fill="#000000">Acdh</text>
</g>
<!-- \\acdhOeaw\\oai\\set\\Complex -->
<g id="node18" class="node">
<title>\\acdhOeaw\\oai\\set\\Complex</title>
<polygon fill="none" stroke="#000000" points="527.5,-320 463.5,-320 463.5,-284 527.5,-284 527.5,-320"/>
<text text-anchor="middle" x="495.5" y="-299.2" font-family="Courier,monospace" font-size="11.00" fill="#000000">Complex</text>
</g>
<!-- \\acdhOeaw\\oai\\set\\SetInterface -->
<g id="node20" class="node">
<title>\\acdhOeaw\\oai\\set\\SetInterface</title>
<polygon fill="none" stroke="#000000" points="354.5,-266 256.5,-266 256.5,-230 354.5,-230 354.5,-266"/>
<text text-anchor="start" x="271.5" y="-251.2" font-family="Courier,monospace" font-size="11.00" fill="#000000">«abstract»</text>
<text text-anchor="start" x="264.5" y="-239.2" font-family="Courier,monospace" font-size="11.00" fill="#000000">SetInterface</text>
</g>
<!-- \\acdhOeaw\\oai\\set\\Complex&#45;&gt;\\acdhOeaw\\oai\\set\\SetInterface -->
<g id="edge8" class="edge">
<title>\\acdhOeaw\\oai\\set\\Complex&#45;&gt;\\acdhOeaw\\oai\\set\\SetInterface</title>
<path fill="none" stroke="#000000" d="M463.2691,-292.8396C436.3074,-285.1769 397.1366,-274.0441 364.5716,-264.7888"/>
<polygon fill="none" stroke="#000000" points="365.274,-261.3498 354.6981,-261.9826 363.3603,-268.0832 365.274,-261.3498"/>
</g>
<!-- \\acdhOeaw\\oai\\set\\NoSets -->
<g id="node19" class="node">
<title>\\acdhOeaw\\oai\\set\\NoSets</title>
<polygon fill="none" stroke="#000000" points="524,-266 467,-266 467,-230 524,-230 524,-266"/>
<text text-anchor="middle" x="495.5" y="-245.2" font-family="Courier,monospace" font-size="11.00" fill="#000000">NoSets</text>
</g>
<!-- \\acdhOeaw\\oai\\set\\NoSets&#45;&gt;\\acdhOeaw\\oai\\set\\SetInterface -->
<g id="edge9" class="edge">
<title>\\acdhOeaw\\oai\\set\\NoSets&#45;&gt;\\acdhOeaw\\oai\\set\\SetInterface</title>
<path fill="none" stroke="#000000" d="M466.6431,-248C439.7362,-248 398.776,-248 364.8861,-248"/>
<polygon fill="none" stroke="#000000" points="364.6189,-244.5001 354.6189,-248 364.6188,-251.5001 364.6189,-244.5001"/>
</g>
<!-- \\acdhOeaw\\oai\\set\\Simple -->
<g id="node21" class="node">
<title>\\acdhOeaw\\oai\\set\\Simple</title>
<polygon fill="none" stroke="#000000" points="524,-212 467,-212 467,-176 524,-176 524,-212"/>
<text text-anchor="middle" x="495.5" y="-191.2" font-family="Courier,monospace" font-size="11.00" fill="#000000">Simple</text>
</g>
<!-- \\acdhOeaw\\oai\\set\\Simple&#45;&gt;\\acdhOeaw\\oai\\set\\SetInterface -->
<g id="edge13" class="edge">
<title>\\acdhOeaw\\oai\\set\\Simple&#45;&gt;\\acdhOeaw\\oai\\set\\SetInterface</title>
<path fill="none" stroke="#000000" d="M466.6431,-202.2014C439.6203,-209.8816 398.4227,-221.5904 364.4482,-231.2463"/>
<polygon fill="none" stroke="#000000" points="363.2811,-227.9393 354.6189,-234.0399 365.1948,-234.6727 363.2811,-227.9393"/>
</g>
<!-- \\acdhOeaw\\oai\\Oai -->
<g id="node22" class="node">
<title>\\acdhOeaw\\oai\\Oai</title>
<polygon fill="none" stroke="#000000" points="522.5,-158 468.5,-158 468.5,-122 522.5,-122 522.5,-158"/>
<text text-anchor="middle" x="495.5" y="-137.2" font-family="Courier,monospace" font-size="11.00" fill="#000000">Oai</text>
</g>
<!-- \\acdhOeaw\\oai\\OaiException -->
<g id="node23" class="node">
<title>\\acdhOeaw\\oai\\OaiException</title>
<polygon fill="none" stroke="#000000" points="544.5,-104 446.5,-104 446.5,-68 544.5,-68 544.5,-104"/>
<text text-anchor="middle" x="495.5" y="-83.2" font-family="Courier,monospace" font-size="11.00" fill="#000000">OaiException</text>
</g>
<!-- \\Exception -->
<g id="node24" class="node">
<title>\\Exception</title>
<ellipse fill="none" stroke="#000000" cx="305.5" cy="-18" rx="48.9926" ry="18"/>
<text text-anchor="middle" x="305.5" y="-14.3" font-family="Times,serif" font-size="14.00" fill="#c0c0c0">\Exception</text>
</g>
<!-- \\acdhOeaw\\oai\\OaiException&#45;&gt;\\Exception -->
<g id="edge6" class="edge">
<title>\\acdhOeaw\\oai\\OaiException&#45;&gt;\\Exception</title>
<path fill="none" stroke="#000000" d="M446.0757,-68.3113C416.4704,-57.7157 379.126,-44.3503 350.3698,-34.0587"/>
<polygon fill="none" stroke="#000000" points="351.1779,-30.6305 340.5833,-30.5561 348.8191,-37.2212 351.1779,-30.6305"/>
</g>
</g>
</svg>
